<!-- 62.49 12.09 -->
<svg xmlns="http://www.w3.org/2000/svg" viewBox="-43.755 -68.955 150 150" style="transform: scale(2)">
  <g fill="#1877F2">
    <path d="M4.89 1.9c-.74 0-.95.32-.95 1.04v1.2H5.9l-.2 1.92H3.95v5.86H1.6V6.06H0V4.13h1.59V2.97C1.59 1.03 2.37 0 4.56 0c.46 0 .92.03 1.37.08V1.9ZM6.07 7.78c0-2.17 1.03-3.81 3.18-3.81 1.18 0 1.9.6 2.24 1.36v-1.2h2.26v7.79h-2.26v-1.18c-.32.75-1.06 1.34-2.24 1.34-2.15 0-3.18-1.63-3.18-3.81Zm2.35.52c0 1.16.43 1.93 1.52 1.93.97 0 1.46-.7 1.46-1.81v-.78c0-1.11-.5-1.82-1.46-1.82-1.1 0-1.52.77-1.52 1.93ZM18.66 3.97c.91 0 1.78.2 2.25.52l-.52 1.67a3.7 3.7 0 0 0-1.57-.36c-1.28 0-1.83.74-1.83 2v.45c0 1.26.55 2 1.83 2a3.7 3.7 0 0 0 1.57-.36l.52 1.67a4.3 4.3 0 0 1-2.25.52c-2.77 0-4.03-1.49-4.03-3.87v-.36c0-2.4 1.26-3.88 4.03-3.88ZM21.22 8.32v-.68c0-2.21 1.26-3.66 3.83-3.66 2.42 0 3.48 1.47 3.48 3.63v1.24h-4.95c.04 1.06.52 1.54 1.82 1.54.89 0 1.82-.18 2.5-.48l.44 1.61c-.62.33-1.9.58-3.03.58-2.98 0-4.09-1.49-4.09-3.78Zm2.36-1.01h2.84v-.2c0-.85-.34-1.52-1.37-1.52-1.06 0-1.47.67-1.47 1.72ZM37.26 8.27c0 2.18-1.05 3.81-3.2 3.81-1.18 0-2-.59-2.33-1.34v1.18h-2.22V.22l2.36-.2v5.2a2.35 2.35 0 0 1 2.19-1.25c2.15 0 3.2 1.64 3.2 3.81Zm-2.36-.54c0-1.1-.42-1.91-1.55-1.91-.96 0-1.49.68-1.49 1.8v.81c0 1.12.53 1.8 1.49 1.8 1.13 0 1.55-.81 1.55-1.91ZM38.05 8.22v-.39c0-2.24 1.27-3.86 3.87-3.86S45.8 5.6 45.8 7.83v.4c0 2.23-1.28 3.85-3.88 3.85-2.6 0-3.87-1.62-3.87-3.86Zm5.4-.55c0-1.03-.43-1.85-1.53-1.85s-1.52.82-1.52 1.85v.72c0 1.03.42 1.84 1.52 1.84s1.52-.81 1.52-1.84ZM46.58 8.22v-.39c0-2.24 1.27-3.86 3.87-3.86s3.88 1.62 3.88 3.86v.4c0 2.23-1.28 3.85-3.88 3.85-2.6 0-3.87-1.62-3.87-3.86Zm5.4-.55c0-1.03-.43-1.85-1.53-1.85s-1.52.82-1.52 1.85v.72c0 1.03.43 1.84 1.52 1.84 1.1 0 1.53-.81 1.53-1.84ZM57.57 7.85l2.32-3.72h2.5l-2.44 3.85 2.54 3.94h-2.5L57.57 8.1v3.82H55.2V.22l2.36-.2Z"/>
  </g>
</svg>
