<svg xmlns="http://www.w3.org/2000/svg"
  xmlns:xlink="http://www.w3.org/1999/xlink" viewBox="-15 -45 150 150" style="transform: scale(1.3)">
  <path fill="#4885ed" d="M32.38 26.45H19.86v3.71h8.88c-.44 5.2-4.78 7.43-8.87 7.43a9.76 9.76 0 0 1-9.8-9.89 9.78 9.78 0 0 1 16.5-7.27l2.6-2.7s-3.33-3.7-9.42-3.7a13.87 13.87 0 0 0-13.76 13.6c0 6.93 5.65 13.69 13.95 13.69 7.31 0 12.66-5 12.66-12.41 0-1.56-.23-2.46-.23-2.46z"/>
  <use xlink:href="#a" fill="#db3236"/>
  <use xlink:href="#a" x="19.18" fill="#f4c20d"/>
  <path fill="#4885ed" d="M80.63 23.77c-4.72 0-8.42 4.13-8.42 8.76 0 5.28 4.3 8.78 8.34 8.78 2.5 0 3.83-.99 4.8-2.13v1.73c0 3.03-1.84 4.84-4.62 4.84-2.68 0-4.02-2-4.5-3.12l-3.37 1.4c1.2 2.53 3.6 5.17 7.9 5.17 4.7 0 8.26-2.96 8.26-9.15V24.29h-3.66v1.49a6.2 6.2 0 0 0-4.73-2.01zm.34 3.44c2.31 0 4.68 1.97 4.68 5.34 0 3.43-2.37 5.32-4.73 5.32-2.52 0-4.86-2.04-4.86-5.29 0-3.37 2.43-5.38 4.9-5.38z"/>
  <path fill="#db3236" d="M105.4 23.74c-4.45 0-8.18 3.54-8.18 8.76 0 5.53 4.16 8.8 8.6 8.8 3.7 0 6-2.02 7.35-3.84l-3.04-2.02a4.91 4.91 0 0 1-4.3 2.41c-2.46 0-3.6-1.35-4.3-2.66l11.77-4.88-.6-1.43c-1.14-2.8-3.8-5.14-7.3-5.14zm.15 3.38c1.6 0 2.76.85 3.25 1.87l-7.86 3.28c-.34-2.54 2.07-5.15 4.6-5.15z"/>
  <path fill="#3cba54" d="M91.6 40.79h3.86V14.93H91.6z"/>
  <defs>
    <path id="a" d="M42.63 23.75a8.67 8.67 0 0 0-8.82 8.7 8.69 8.69 0 0 0 8.88 8.85 8.6 8.6 0 0 0 8.75-8.74c0-5.8-4.58-8.8-8.8-8.8zm.05 3.45c2.53 0 4.92 2.04 4.92 5.34 0 3.21-2.38 5.32-4.93 5.32-2.8 0-5-2.25-5-5.35 0-3.04 2.18-5.3 5.02-5.3z"/>
  </defs>
</svg>
