<svg xmlns="http://www.w3.org/2000/svg" viewBox="-8.335 -48.315 150 150">
  <path d="M511.62 400.08a286.72 286.72 0 0 0 105.49-16.11c50.74-17.82 96.09-50.46 129.27-92.75a285.02 285.02 0 0 0 36.4-60.51c1.7-3.6 3.02-7.63 2.1-11.63a15.93 15.93 0 0 0-13.76-12.94c-7.03-1.02-14.3 3.36-16.8 9.99-19.06 44.84-51.58 83.79-92.15 110.75a251.63 251.63 0 0 1-82.58 35.8 255.36 255.36 0 0 1-115.69.02c-54.11-12.46-103.66-43.5-138.6-86.63a251.83 251.83 0 0 1-36.28-59.98c-2-5-6.58-8.93-11.93-9.81a15.9 15.9 0 0 0-14.37 4.63 15.86 15.86 0 0 0-3.45 16.62c25.39 60 72.39 110.42 130.17 140.43a285.22 285.22 0 0 0 122.18 32.12" style="fill:#f49813;fill-opacity:1;fill-rule:nonzero;stroke:none" transform="matrix(.13 0 0 -.13 0 53.37)"/>
  <path d="M464.36 215.3c-.22 3.12 2.73 5.45 5.66 5.53 3.8.1 7.6.07 11.4.01 2.65-.09 5.74-1.85 5.72-4.82.14-34.87-.08-69.75.12-104.64 14.13 15.71 28.38 31.33 42.56 47 2.8 2.75 5 6.92 9.34 7.28 5.86.25 11.72.1 17.58.1 2.26.2 4.78-1.87 3.99-4.28-.93-1.86-2.63-3.14-4.01-4.62-15.34-15.32-30.73-30.58-45.98-45.97 14.73-16.82 29.26-33.81 43.93-50.7 1.89-2.4 4.25-4.44 5.83-7.08 1.16-2.07-.76-4.6-2.98-4.7-4.87-.27-9.75 0-14.63-.1-2.54.05-5.29-.32-7.6.99-2.42 1.4-3.9 3.88-5.64 5.98-14.15 17.82-28.2 35.7-42.4 53.49-.14-17.54-.04-35.07-.05-52.6-.06-2.02.36-4.46-1.4-5.94-2.81-2.7-6.99-1.75-10.49-1.93-3.1.1-6.74-.57-9.26 1.72-1.4 1.1-1.77 2.96-1.72 4.62.04 53.56-.01 107.12.03 160.66M399.91 166.05c7.1 2.28 15.09 2.71 22.04-.3 2.44-1.14 5.27-3.58 4.17-6.59-1.12-3.78-2.06-7.6-3.4-11.3-.97-2.67-4.06-3.66-6.66-3.14-5.86 1-11.6 2.94-17.6 2.74-4.19.1-8.05-2.15-10.92-5.06-4.62-4.52-7-10.84-8.08-17.1-.85-4.54-.61-9.17-.65-13.75V53.83c.27-3.17-3-5.31-5.86-5.42-3.92-.06-7.84-.1-11.76.03-2.83.15-6.01 2.21-5.65 5.4-.01 35.62-.04 71.24.01 106.86-.24 3.55 3.68 5.47 6.76 5.14 3.87-.25 9.14 1.2 11.65-2.69 1.9-4.5 2.81-9.37 4.6-13.92 5.39 7.4 12.53 13.9 21.35 16.82M0 163.33c1.09 1.25 2.36 2.6 4.18 2.47 5.32.05 10.66.17 15.97-.08 2.7-.07 4.56-2.45 4.96-4.96 5.23-21.27 10.36-42.57 15.57-63.85 1.53-6.57 3.39-13.07 4.38-19.75 1.03-6 1.23-12.1 2.2-18.12 1.35 8.59 2.56 17.23 4.87 25.62l20.43 76.17a6.26 6.26 0 0 0 6.15 4.95c5.92.15 11.86.05 17.78.05 3.17.15 6.57-1.7 7.34-4.96 5.08-18.52 10.1-37.06 15.17-55.59 3.08-12 7.1-23.8 8.84-36.1.48-3.4.95-6.8 1.65-10.16 1.91 19.34 6.89 38.16 10.98 57.1 3.38 15.07 6.69 30.16 10.1 45.23.5 3.02 3.71 4.55 6.53 4.46 4.8.03 9.59.17 14.37-.08 2.84-.08 4.47-3.22 3.47-5.75-9.6-35.46-19.18-70.94-28.8-106.4a6.2 6.2 0 0 0-5.89-5.1c-7.42-.25-14.86-.06-22.28-.1-2.66-.17-5.47 1.26-5.94 4.06-6.65 24.38-13.16 48.81-19.74 73.21-2.38 8.5-3.35 17.3-4.35 26.02-1.22-7.77-1.83-15.67-3.9-23.31-6.74-25.13-13.51-50.26-20.27-75.4-.76-4.06-5.41-4.87-8.87-4.6-6.9.12-13.8-.17-20.7.12-2.46-.01-4.35 1.9-4.8 4.22C19.73 88.02 10.07 123.35.38 158.66c-.34 1.54-.3 3.12-.37 4.67M870.45 165.73c5.04.09 10.1.11 15.14 0a7.53 7.53 0 0 0 6.91-5.07c8.7-22.74 17.35-45.52 26.04-68.28a70.86 70.86 0 0 0 3.9-14.32c3.6 13.5 8.38 26.63 12.58 39.95 4.67 14.4 9.35 28.8 14.05 43.21a6.36 6.36 0 0 0 5.62 4.43c4.11.3 8.25.04 12.38.15 2.4-.03 5.28.26 7.11-1.68 1.2-1 .94-2.68.44-4-13.9-39.66-27.77-79.35-41.65-119.03-2.42-6.6-4.27-13.52-8.16-19.47-5.58-9.05-14.61-15.57-24.54-19.1-3.47-1.07-7.05-3.46-10.78-2.12-2.65.67-3.67 3.43-5.08 5.45-1.01 1.84-2.89 3.54-2.5 5.82.18 2.27 2 4.11 4.14 4.72 4.19 1.44 8.45 3.04 11.84 6 8.24 6.97 13.34 17.28 15.28 27.77-1.32 4.66-3.75 8.95-5.52 13.46-13.26 30.82-26.52 61.65-39.81 92.46-.8 2.02-1.99 3.94-2.21 6.13.03 2.4 2.78 3.45 4.82 3.52M252.12 150.83a25.73 25.73 0 0 1-17.5-12.26c-6.14-10.4-6.85-22.96-6.57-34.75.43-10.68 2.15-22.07 8.96-30.7 5.08-6.5 13.44-9.76 21.55-9.64 7.81-.25 16 2.4 21.28 8.34 6.77 7.4 8.94 17.65 9.87 27.33.4 9.5.6 19.18-1.87 28.46-1.96 7.84-6.1 15.68-13.26 19.9-6.67 4.1-14.9 4.47-22.46 3.32zm3.05 16.91c13.1.8 26.8-1.91 37.61-9.67 9.67-6.87 16.23-17.46 19.3-28.82a84.58 84.58 0 0 0 .32-41.67C309.29 75 302 63.16 291.02 56.02c-11.74-7.79-26.48-9.8-40.26-8.15-11.74 1.45-23.18 6.6-31.35 15.24-9.6 10.07-14.37 23.93-15.37 37.63-1.2 15.2 1.12 31.28 9.58 44.26 6.25 9.77 16.2 16.94 27.28 20.22 4.63 1.44 9.45 2.11 14.27 2.52M641.3 151.44c-7.18-.46-14.1-4.59-17.31-11.14-6.26-12.1-6.39-26.2-6.08-39.53.5-8.7 1.45-17.68 5.5-25.54 2.75-5.3 7.73-9.48 13.62-10.76 9-2.17 19.62-.33 26.02 6.8 6.17 7.02 8.2 16.57 9.15 25.62.66 10.3.7 20.83-1.86 30.92-1.76 6.74-4.74 13.48-10.08 18.17-5.13 4.5-12.27 6.25-18.97 5.47zm30.87 65.36c-.16 2.73 2.63 4.48 5.06 4.69 3.89.2 7.79.1 11.68.06 2.97.03 6.29-2.18 5.86-5.47V54.68c.2-2.78-2.54-4.93-5.1-5.1-3.1-.17-6.2-.17-9.3.05a5.74 5.74 0 0 0-5.02 3.61c-1.17 3.5-1.77 7.13-2.66 10.69-4.3-5.83-9.84-10.99-16.72-13.55-9.81-3.61-20.74-3.67-30.83-1.2a37.3 37.3 0 0 0-23.86 18.56c-7.67 14-8.58 30.46-8.1 46.08.27 13.34 2.82 27.41 11.51 38 6.56 8.97 17.3 14.12 28.15 15.47 10.1 1.47 21.04-.23 29.4-6.34 3.95-2.79 7.12-6.52 9.94-10.41-.08 22.08-.06 44.17 0 66.26M780.82 150.77a24.2 24.2 0 0 1-10-4.43c-5.82-4.53-8.7-11.73-10.25-18.72-2.25-11.1-2.22-22.55-1.05-33.77 1.08-8.24 3.15-17.04 9.2-23.14 4.92-5.16 12.34-7.06 19.28-6.72 7.47-.27 15.25 2.51 20.06 8.38 6.03 7.29 7.72 16.98 8.6 26.1.56 10.74.57 21.73-2.45 32.15-1.9 6.5-5.39 12.95-11.27 16.65-6.47 4.25-14.66 4.64-22.12 3.5zm-10 14.74a65.52 65.52 0 0 0 31.93.64c9.73-2.25 18.84-7.71 24.81-15.8 6.32-8.29 9.51-18.57 10.84-28.8 1.16-7.9.82-15.9.83-23.86 0-14.36 0-28.73-.03-43.08.15-1.75-.95-3.3-2.38-4.21-2.41-1.49-5.4-.83-8.09-1-3.01.03-6.98-.24-8.62 2.9-1.6 3.68-1.93 7.8-2.96 11.68-4.04-4.92-8.23-9.99-14.08-12.83-8.91-4.4-19.34-4.15-28.88-2.28-11.67 2.3-22.42 9.2-29.02 19.15-7.86 11.58-10.71 25.88-10.6 39.7-.1 13.46 2.53 27.39 10.02 38.78 6 9.32 15.6 16.07 26.23 19M979.57 77.29c-5.92-2.18-9.65-9.02-8.14-15.19 1.54-7.24 9.97-12.19 17-9.51 6.49 1.98 10.58 9.37 8.57 15.9-1.77 7.33-10.47 11.67-17.43 8.8zm.82 3.1c3.52.55 7.34.59 10.6-1.04 5.56-2.53 9.55-8.5 8.95-14.7.46-7.4-5.76-14-12.87-15.2-8-1.7-16.6 4.1-18.23 12.07-2.1 8.03 3.48 17.07 11.55 18.86" style="fill:#3069b5;fill-opacity:1;fill-rule:nonzero;stroke:none" transform="matrix(.13 0 0 -.13 0 53.37)"/>
  <path d="M982.05 71.37c-.01-1.68-.02-3.36 0-5.05 1.47.09 2.99 0 4.44.4 1.37.57 1.23 2.3.86 3.47-1.42 1.38-3.52 1.02-5.3 1.18zm-4.45 2.73c4.25-.24 9.02.96 12.84-1.41 3.1-2.32 1.6-7.36-1.89-8.43 1-2.66 2.4-5.13 3.68-7.66l-4.77-.08a375.9 375.9 0 0 0-3.36 7.07l-2.05.04c-.02-2.36-.02-4.72-.02-7.09l-4.45.05c.01 5.84 0 11.68.02 17.51" style="fill:#3069b5;fill-opacity:1;fill-rule:nonzero;stroke:none" transform="matrix(.13 0 0 -.13 0 53.37)"/>
</svg>
